<?xml version="1.0" standalone="no"?>
<!DOCTYPE svg PUBLIC "-//W3C//DTD SVG 20010904//EN"
 "http://www.w3.org/TR/2001/REC-SVG-20010904/DTD/svg10.dtd">
<svg version="1.0" xmlns="http://www.w3.org/2000/svg"
 width="1024.000000pt" height="1024.000000pt" viewBox="0 0 1024.000000 1024.000000"
 preserveAspectRatio="xMidYMid meet">
<metadata>
Created by potrace 1.16, written by Peter Selinger 2001-2019
</metadata>
<g transform="translate(0.000000,1024.000000) scale(0.100000,-0.100000)"
fill="#000000" stroke="none">
<path d="M4755 9445 c-192 -14 -214 -17 -415 -51 -425 -73 -831 -211 -1265
-431 -174 -88 -377 -213 -572 -353 -516 -367 -956 -875 -1275 -1470 -59 -109
-181 -377 -227 -500 l-36 -95 -173 1 -172 2 0 -297 c0 -267 2 -300 19 -337 22
-47 88 -105 149 -129 40 -16 42 -20 37 -49 -39 -243 -55 -691 -35 -971 53
-727 336 -1482 799 -2130 321 -450 823 -923 1259 -1184 26 -16 97 -59 157 -95
136 -83 349 -188 531 -262 575 -234 1091 -324 1734 -303 727 24 1427 242 2080
648 158 98 395 273 515 380 422 377 716 726 964 1149 309 527 493 1055 566
1625 38 293 29 776 -21 1129 -6 45 -5 48 20 57 56 22 124 83 147 134 24 49 24
56 24 341 l0 291 -165 2 c-91 1 -168 2 -171 2 -4 1 -10 13 -14 28 -14 57 -145
347 -224 496 -243 458 -571 887 -922 1204 -380 344 -721 578 -1100 757 -705
331 -1441 468 -2214 411z m575 -175 c229 -15 390 -34 565 -70 711 -144 1337
-447 1900 -919 151 -127 466 -447 580 -591 190 -240 399 -570 517 -818 55
-115 168 -389 182 -439 3 -13 9 -32 12 -43 5 -18 1 -20 -39 -20 -43 0 -44 1
-56 43 -45 150 -214 510 -337 717 -71 120 -216 337 -273 410 -378 477 -801
846 -1286 1122 -373 212 -841 382 -1280 463 -435 80 -1014 80 -1452 -1 -563
-103 -1148 -345 -1622 -672 -400 -275 -776 -655 -1047 -1057 -179 -265 -352
-605 -470 -923 l-38 -102 -38 0 c-26 0 -38 4 -38 14 0 24 69 213 131 360 256
599 654 1140 1139 1547 645 541 1514 903 2325 969 264 21 405 23 625 10z
m-520 -377 c0 -45 31 -506 35 -531 l6 -34 107 7 c59 4 115 9 125 11 15 5 17
-3 17 -70 l0 -76 -58 0 c-32 0 -118 -5 -191 -11 -73 -6 -134 -9 -136 -7 -2 2
-15 138 -29 303 -14 165 -29 323 -32 352 l-5 52 38 4 c71 7 123 7 123 0z m906
-29 l92 -17 7 -36 c3 -20 20 -94 37 -166 30 -127 31 -129 47 -105 16 24 169
231 177 239 2 2 51 -8 108 -23 l104 -28 -10 -37 c-5 -20 -48 -160 -95 -311
-47 -151 -88 -285 -91 -297 -2 -13 -8 -23 -13 -23 -9 0 -131 32 -137 35 -1 1
14 68 33 150 20 81 34 149 32 152 -4 3 -146 -192 -178 -244 -10 -17 -19 -21
-43 -16 -17 3 -32 6 -33 7 -1 1 -14 70 -29 155 -32 178 -31 178 -79 -15 l-28
-110 -77 15 c-76 14 -77 14 -68 40 4 14 26 123 48 241 37 193 62 324 76 388 5
26 4 26 120 6z m-1263 -199 c41 -93 86 -195 100 -225 21 -44 84 -188 113 -256
3 -7 -16 -14 -53 -19 -32 -3 -68 -9 -79 -12 -19 -4 -24 3 -39 46 -19 57 -22
58 -110 38 l-50 -12 -3 -57 -3 -57 -42 -11 c-23 -6 -55 -15 -71 -21 -16 -5
-30 -8 -30 -7 -1 2 0 168 2 370 l3 367 57 11 c31 6 71 14 87 19 17 4 33 5 37
2 3 -3 40 -82 81 -176z m-549 -5 c68 -33 109 -118 110 -225 0 -37 -7 -74 -17
-94 l-17 -33 51 -74 c29 -41 70 -95 92 -119 21 -25 38 -47 36 -49 -5 -4 -112
-41 -120 -41 -3 0 -32 32 -65 70 -93 111 -126 145 -141 145 -21 0 -16 -27 33
-147 25 -63 44 -116 42 -117 -8 -6 -139 -56 -147 -56 -5 0 -7 8 -4 18 5 21
-22 92 -152 387 -53 121 -99 227 -101 235 -5 16 10 23 186 86 109 39 157 42
214 14z m2722 -65 c52 -31 79 -67 95 -128 9 -39 9 -55 -6 -99 -26 -82 -148
-329 -180 -367 -94 -111 -286 -62 -326 82 -16 60 -2 116 71 282 92 209 136
255 243 255 46 0 70 -6 103 -25z m-3231 -146 c20 -34 35 -62 33 -64 -2 -1 -43
-23 -93 -50 -49 -26 -102 -57 -117 -67 l-27 -19 36 -52 c20 -29 38 -53 39 -55
3 -5 84 37 115 59 l26 18 32 -45 c37 -52 37 -52 -43 -109 -31 -22 -56 -44 -56
-49 0 -5 14 -31 30 -58 17 -26 30 -53 30 -58 0 -6 1 -10 3 -10 11 0 223 123
225 131 5 14 22 11 22 -4 0 -7 15 -36 34 -65 19 -28 31 -54 27 -56 -4 -3 -43
-24 -87 -47 -43 -23 -125 -68 -181 -100 -105 -61 -126 -69 -117 -45 3 8 -2 29
-12 48 -39 75 -250 424 -305 505 l-29 41 48 30 c33 22 295 165 329 181 1 1 18
-27 38 -60z m3493 22 c15 -10 83 -53 152 -96 122 -75 406 -269 459 -312 14
-12 24 -23 21 -25 -3 -1 -28 -25 -56 -51 l-51 -49 -48 37 c-26 20 -53 35 -60
33 -7 -2 -81 -82 -165 -178 -84 -96 -158 -181 -165 -188 -10 -11 -22 -6 -68
29 l-56 44 23 20 c13 11 83 88 156 170 72 83 141 158 152 168 20 17 20 17 -3
37 -13 11 -52 39 -87 62 l-64 41 -23 -29 c-13 -16 -84 -113 -157 -216 l-133
-186 -30 19 c-16 11 -41 25 -55 32 -14 6 -27 12 -28 13 -2 2 52 81 120 176 68
95 139 194 156 219 l32 47 -65 42 c-36 23 -65 44 -65 46 0 14 67 114 77 114 2
0 16 -8 31 -19z m-3975 -358 c211 -280 339 -443 348 -443 25 0 1 -30 -57 -72
l-65 -47 -47 21 c-53 23 -309 118 -318 118 -8 0 192 -224 212 -235 14 -9 9
-18 -45 -64 l-61 -53 -27 33 c-16 19 -121 134 -235 256 -115 121 -208 224
-208 228 0 4 12 17 28 28 15 12 46 39 69 60 38 35 45 38 70 29 32 -12 328
-126 358 -138 12 -5 -1 17 -34 55 -30 34 -83 99 -118 144 l-63 82 27 20 c14
11 40 32 57 47 17 15 32 28 33 28 1 0 35 -44 76 -97z m4738 -195 c54 -30 91
-87 97 -148 7 -73 -29 -138 -144 -259 -148 -155 -213 -189 -299 -157 -100 39
-160 143 -135 238 10 35 35 66 133 167 67 68 142 136 166 152 57 37 125 39
182 7z m-2196 -78 c603 -94 1126 -348 1597 -774 168 -152 339 -360 407 -493
26 -52 26 -53 1 -53 -13 0 -36 26 -74 83 -64 97 -191 250 -271 327 -63 60 -63
54 1 -30 71 -95 244 -355 244 -368 0 -7 -10 -12 -22 -11 -17 0 -41 24 -90 92
-174 240 -435 484 -711 664 -323 210 -697 353 -1102 419 -156 26 -516 26 -670
1 -527 -87 -1023 -315 -1410 -648 -149 -128 -329 -328 -434 -481 -23 -35 -38
-48 -56 -48 -14 0 -25 2 -25 5 0 15 205 326 278 423 75 99 -72 -45 -173 -170
-34 -42 -89 -118 -121 -168 -45 -70 -63 -90 -81 -90 -13 0 -23 4 -23 8 0 16
99 172 160 252 257 337 720 679 1170 863 272 111 585 191 851 217 138 13 404
4 554 -20z m-3120 -266 c-41 -46 -75 -88 -75 -92 0 -4 21 -26 45 -50 l45 -44
65 58 66 57 39 -38 39 -38 -50 -61 c-27 -33 -49 -65 -49 -71 1 -5 24 -28 52
-49 l51 -40 93 96 92 95 22 -29 c12 -16 32 -34 46 -40 13 -6 24 -15 24 -19 0
-4 -61 -73 -136 -153 l-135 -146 -142 122 c-318 274 -357 307 -373 316 -9 5
-15 14 -13 19 2 6 64 73 138 150 l133 140 49 -49 49 -49 -75 -85z m5596 48
c53 -34 95 -82 120 -137 48 -104 -6 -229 -117 -271 -38 -14 -53 -16 -87 -7
-23 6 -45 9 -49 7 -4 -3 -22 -43 -40 -90 -27 -72 -40 -92 -79 -125 l-47 -39
-32 55 -32 56 20 22 c25 26 116 216 108 224 -6 6 -25 -8 -126 -91 l-72 -60
-47 54 -48 54 42 28 c38 25 239 192 290 241 28 27 136 107 144 107 4 0 27 -13
52 -28z m-2787 -87 l38 -95 99 0 c54 0 99 -4 99 -9 0 -5 -35 -39 -79 -76 l-78
-67 23 -92 c29 -114 30 -124 7 -104 -10 8 -49 34 -86 58 l-68 43 -29 -22 c-45
-33 -132 -82 -137 -78 -2 3 7 49 21 103 14 54 24 99 23 99 -27 16 -164 134
-160 139 4 3 48 6 98 6 62 0 96 4 102 13 6 6 25 49 44 95 18 45 36 82 39 82 4
0 24 -43 44 -95z m-518 -195 c30 0 54 -2 54 -5 0 -3 -16 -20 -36 -37 -32 -29
-35 -35 -30 -69 3 -20 9 -44 12 -53 9 -24 -14 -20 -53 10 l-33 25 -32 -24
c-61 -44 -60 -45 -53 14 l6 54 -41 28 c-22 16 -40 32 -40 37 0 5 23 10 52 12
50 3 51 4 65 43 24 73 24 73 50 18 l24 -53 55 0z m1079 45 c24 -55 24 -55 69
-55 25 0 47 -4 50 -8 3 -5 -15 -24 -40 -43 -47 -35 -48 -40 -28 -111 7 -25 -6
-22 -52 12 l-40 29 -37 -26 c-21 -14 -40 -23 -43 -20 -4 3 -2 25 4 48 13 51
10 57 -33 89 -19 14 -35 28 -35 33 0 4 25 7 56 7 l55 0 21 50 c11 28 22 50 24
50 3 0 15 -25 29 -55z m-1495 -173 c28 3 50 2 50 -2 0 -4 -15 -24 -34 -44
l-34 -38 14 -51 c7 -28 12 -52 11 -54 -2 -1 -23 11 -47 27 l-44 29 -37 -30
c-42 -33 -63 -37 -56 -11 3 9 8 33 11 53 6 35 4 38 -39 65 -25 16 -45 32 -45
37 0 4 20 7 45 7 47 0 85 25 85 56 0 8 5 25 12 37 11 21 13 19 35 -32 l24 -53
49 4z m1900 46 c0 -33 36 -58 85 -58 25 0 45 -4 45 -10 0 -5 -3 -10 -7 -10 -5
-1 -24 -15 -45 -33 -35 -31 -36 -34 -29 -79 4 -27 5 -48 1 -48 -3 0 -24 13
-45 29 l-39 29 -37 -25 c-21 -14 -42 -23 -47 -21 -6 2 -4 24 4 53 l13 50 -36
36 c-40 42 -33 54 28 44 l39 -7 22 52 c20 47 23 51 35 34 7 -10 13 -26 13 -36z
m-4062 -42 c2 -3 -25 -51 -62 -107 -36 -56 -66 -109 -66 -118 0 -15 157 -114
277 -175 l53 -26 35 47 c19 27 35 53 35 60 0 6 -19 25 -42 42 -41 30 -68 39
-68 23 0 -5 -6 -16 -13 -26 -13 -17 -16 -17 -65 15 -28 19 -52 36 -52 39 0 3
24 37 53 76 28 40 57 80 63 90 11 18 13 18 35 -2 13 -12 81 -63 152 -113 70
-51 127 -94 127 -97 0 -3 -13 -24 -28 -47 -16 -23 -47 -74 -70 -113 -64 -110
-120 -146 -205 -130 -36 7 -245 123 -337 187 -69 48 -90 83 -90 146 0 58 27
119 83 192 l41 54 69 -6 c38 -3 72 -8 75 -11z m6219 -42 c73 -56 119 -148 109
-222 -7 -53 -45 -142 -60 -142 -6 0 -33 20 -60 43 l-48 42 22 38 c20 33 21 41
10 68 -24 56 -90 78 -123 41 -14 -15 -15 -27 -9 -64 16 -82 -34 -212 -100
-261 -42 -31 -133 -35 -187 -8 -44 23 -93 89 -124 169 -27 68 -24 77 38 102
31 12 59 30 64 38 9 16 9 17 42 -111 19 -71 69 -97 109 -57 17 17 20 34 20
103 1 110 12 153 52 194 63 65 178 77 245 27z m-4516 -157 c16 -42 17 -42 75
-47 l58 -5 -43 -40 -42 -41 12 -47 c6 -26 9 -50 7 -52 -3 -3 -22 8 -44 24
l-39 28 -49 -35 -49 -36 6 45 c3 25 9 52 12 62 5 12 -6 25 -39 48 -25 18 -46
36 -46 41 0 4 25 8 56 8 59 0 57 -2 88 84 8 24 17 15 37 -37z m2749 0 c15 -42
15 -42 73 -45 31 -2 57 -6 57 -11 0 -4 -20 -22 -45 -41 -49 -36 -48 -35 -36
-97 10 -52 0 -54 -48 -14 l-34 28 -44 -30 c-24 -16 -46 -27 -49 -24 -3 3 1 28
10 56 l15 50 -40 32 c-21 17 -39 35 -39 40 0 5 24 9 53 9 l53 0 23 51 c13 27
26 47 29 44 4 -4 14 -25 22 -48z m-1297 -210 c288 -123 699 -247 933 -282 68
-10 179 -15 357 -15 l257 0 0 -115 c0 -63 -4 -115 -8 -115 -5 0 -34 -15 -65
-34 l-57 -35 0 83 0 83 -212 6 c-250 7 -381 25 -648 92 -232 59 -414 114 -556
171 l-110 43 -75 -30 c-211 -88 -656 -210 -904 -249 -81 -13 -207 -23 -332
-27 l-203 -6 0 -78 c0 -44 -3 -79 -6 -79 -3 0 -35 16 -70 36 l-65 36 3 107 3
106 290 6 c316 7 361 13 628 83 184 49 503 156 622 209 55 25 103 45 108 46 4
1 53 -19 110 -42z m-1763 -45 c0 -2 -30 -41 -67 -87 -38 -45 -80 -99 -96 -119
-26 -34 -30 -35 -87 -35 -33 1 -60 6 -60 11 0 13 77 112 141 182 l51 56 59 -2
c32 -1 59 -4 59 -6z m3498 -49 c60 -62 142 -170 142 -184 0 -5 -28 -9 -63 -9
l-63 0 -48 65 c-27 36 -70 90 -97 119 -27 30 -49 56 -49 58 0 3 28 6 62 7 l62
2 54 -58z m-5277 -20 c17 -55 27 -63 75 -63 24 0 44 -4 44 -9 0 -5 -16 -22
-36 -38 -36 -29 -36 -30 -26 -76 5 -26 8 -47 6 -47 -3 0 -22 12 -44 26 l-40
27 -34 -27 c-19 -14 -38 -26 -41 -26 -4 0 -4 22 0 49 6 47 6 50 -29 76 -20 15
-36 31 -36 36 0 5 20 9 44 9 48 0 58 8 75 63 7 20 16 37 21 37 5 0 14 -17 21
-37z m6890 0 c17 -56 26 -63 83 -63 l51 -1 -44 -39 -43 -40 11 -44 c6 -25 11
-47 11 -50 0 -3 -20 9 -44 26 l-45 31 -35 -26 c-38 -30 -61 -35 -53 -13 3 8 9
30 12 49 6 32 4 37 -34 63 -22 16 -41 32 -41 37 0 4 24 7 54 7 l54 0 17 50 c9
28 20 50 25 50 5 0 14 -17 21 -37z m-5148 -520 c69 -26 166 -76 225 -116 78
-52 135 -125 172 -222 l24 -60 6 -730 c7 -792 5 -768 64 -869 61 -103 214
-199 576 -359 250 -110 562 -257 590 -277 l30 -21 142 70 c79 38 256 121 393
184 572 262 631 301 697 466 23 56 23 58 29 781 5 658 7 730 23 780 24 72 55
132 65 125 5 -2 8 1 7 8 -2 18 52 76 105 113 112 78 218 124 323 143 66 12
2486 16 2486 4 0 -7 -157 -203 -175 -218 -7 -6 -81 -12 -166 -14 -169 -3 -241
-19 -99 -22 47 -1 119 -4 160 -8 l75 -6 -55 -59 c-30 -32 -69 -65 -87 -72 -25
-11 -116 -14 -420 -14 -213 -1 -458 -5 -543 -10 -210 -13 -760 -22 -655 -10
44 4 165 11 269 15 300 12 274 25 -39 21 -176 -2 -245 -1 -185 4 52 4 132 8
178 9 46 0 91 5 101 10 10 6 129 14 266 20 136 5 250 12 253 15 3 4 -114 7
-259 8 l-264 1 223 10 c122 5 222 13 222 17 0 9 -271 18 -800 26 -369 6 -422
5 -480 -10 -36 -9 -79 -25 -97 -36 -40 -23 -44 -10 -5 20 18 14 20 18 6 11
-36 -18 -111 -109 -130 -159 -17 -43 -19 -104 -24 -787 -6 -801 -2 -751 -60
-866 -91 -180 -240 -278 -805 -527 -300 -133 -483 -220 -578 -278 -49 -30 -92
-54 -95 -54 -2 0 -17 11 -32 24 -42 35 -213 120 -480 239 -596 265 -741 342
-853 451 -62 60 -122 155 -149 235 -22 65 -23 75 -28 801 -4 543 -8 742 -17
762 -23 52 -64 109 -74 103 -5 -4 -8 -1 -7 5 2 7 -4 14 -12 15 -8 2 -37 14
-65 27 l-50 23 -445 -2 c-522 -2 -852 -12 -844 -24 3 -5 60 -9 127 -10 230 -2
260 -16 42 -19 -167 -2 -188 -4 -130 -11 39 -5 151 -12 250 -16 99 -4 169 -9
155 -12 -18 -4 -9 -7 30 -12 l55 -7 -70 0 c-38 0 -115 -1 -170 -3 l-100 -2
135 -8 c74 -5 241 -15 370 -23 l235 -15 -340 5 c-187 2 -394 8 -460 14 -66 5
-300 9 -520 10 -220 1 -417 4 -437 8 -28 5 -55 24 -103 71 -36 35 -62 67 -59
70 3 3 31 6 62 7 31 0 100 2 152 3 84 3 90 4 50 12 -25 4 -94 8 -155 8 -60 1
-119 4 -130 7 -11 3 -36 25 -55 48 -19 24 -59 71 -87 105 -29 34 -53 66 -53
72 0 6 443 9 1258 7 l1257 -3 58 -22z m1284 -126 c59 -30 114 -81 140 -130 15
-26 18 -57 18 -177 l0 -145 -90 0 -90 0 -5 92 c-6 98 -16 120 -72 149 -38 19
-126 18 -168 -4 -70 -35 -70 -31 -70 -557 0 -280 4 -484 10 -506 16 -56 51
-82 118 -87 45 -3 68 1 98 16 70 36 71 39 75 222 l4 165 -82 3 -83 3 0 88 c0
72 3 90 16 95 9 3 90 6 180 6 l164 0 0 -410 0 -410 -54 0 c-64 0 -69 7 -60 87
l7 55 -53 -51 c-113 -109 -280 -125 -413 -41 -51 32 -101 101 -118 162 -6 24
-9 246 -7 611 l3 572 27 50 c40 76 117 139 197 162 28 8 87 12 151 10 91 -3
112 -7 157 -30z m858 -317 c31 -168 59 -312 62 -320 3 -8 41 131 85 310 44
179 81 331 83 338 3 9 36 12 120 12 l115 0 -2 -802 -3 -803 -96 -3 -97 -3 -10
63 c-6 35 -16 95 -21 133 -10 69 -14 113 -47 520 -9 110 -17 201 -19 203 -1 1
-5 -21 -9 -50 -8 -61 -98 -476 -127 -588 -36 -136 -71 -255 -81 -273 -12 -23
-32 -9 -57 42 -33 66 -50 168 -100 611 -16 140 -31 234 -34 220 -4 -14 -29
-158 -57 -320 -47 -273 -85 -483 -96 -537 -4 -22 -9 -23 -99 -23 -93 0 -95 1
-95 23 0 13 16 131 35 263 20 131 54 361 76 509 37 256 114 744 124 792 5 22
10 23 143 25 129 3 137 2 144 -17 4 -11 32 -157 63 -325z m-2623 -45 l206 0 7
-62 c4 -34 3 -68 -1 -74 -11 -19 -1697 -3 -1734 16 -35 18 -107 79 -133 112
l-21 26 734 -8 c404 -5 828 -9 942 -10z m5987 -22 c-53 -57 -82 -82 -110 -98
-21 -11 -173 -15 -887 -21 l-862 -7 0 25 c0 14 3 46 6 72 l7 46 206 1 c113 1
289 5 391 8 102 4 432 8 734 9 l550 2 -35 -37z m311 -188 c37 -360 18 -820
-46 -1134 -145 -712 -472 -1360 -981 -1941 -504 -577 -1165 -1010 -1906 -1249
-528 -171 -1104 -224 -1665 -156 -676 83 -1385 375 -1957 806 -326 245 -672
590 -895 893 -425 578 -703 1257 -786 1921 -26 200 -26 666 -1 860 10 77 22
143 26 148 4 4 22 -8 40 -27 l33 -34 -14 -78 c-21 -126 -18 -756 5 -904 94
-619 331 -1207 704 -1745 265 -382 648 -763 1048 -1041 490 -341 1032 -571
1595 -678 422 -81 942 -81 1370 0 505 95 1000 291 1435 569 461 295 898 713
1204 1153 412 594 649 1216 712 1872 17 172 14 585 -4 735 l-15 120 36 38 37
38 7 -28 c4 -15 12 -77 18 -138z m-6065 -23 c5 -4 18 -5 28 -4 14 3 17 -5 18
-40 1 -24 2 -54 3 -68 l1 -25 -750 0 c-725 0 -751 1 -780 20 -58 37 -155 117
-155 127 0 11 1616 1 1635 -10z m5515 9 c0 -13 -108 -109 -143 -128 -25 -12
-143 -15 -803 -20 l-774 -6 0 70 c0 69 1 71 28 76 15 3 285 6 601 7 316 0 577
3 580 5 9 9 511 5 511 -4z m-5527 -228 c290 -6 352 -11 335 -28 -3 -4 -62 -10
-130 -14 l-123 -8 117 -2 116 -1 12 -36 c7 -19 9 -38 5 -42 -4 -4 -343 -6
-754 -5 -735 1 -749 2 -789 22 -40 20 -134 96 -140 112 -4 11 897 12 1351 2z
m5267 0 c0 -11 -108 -97 -145 -116 -25 -13 -117 -16 -590 -22 -631 -9 -955 -1
-955 21 0 10 15 14 53 15 97 2 120 17 28 18 -46 0 -81 4 -78 8 9 9 132 32 187
35 25 1 -9 4 -75 8 -203 9 -139 24 127 30 400 9 1448 11 1448 3z m-6913 -184
c21 -20 61 -54 90 -76 l52 -41 -212 -4 c-117 -3 -214 -3 -216 -1 -3 2 -5 35
-5 73 -1 53 3 73 14 80 8 5 66 9 127 7 l113 -3 37 -35z m7499 -42 c1 -44 -3
-70 -10 -73 -6 -2 -103 -3 -216 -2 l-204 3 78 67 79 67 96 4 c53 2 114 3 136
3 l40 -1 1 -68z m-5888 17 c307 -5 372 -9 372 -20 0 -11 -20 -14 -82 -16 l-83
-2 80 -6 c44 -3 69 -8 55 -10 -24 -3 -24 -3 -2 -7 24 -5 29 -18 10 -26 -8 -3
-6 -6 5 -6 9 -1 17 -7 17 -15 0 -19 -395 -29 -874 -21 l-391 7 -53 30 c-55 31
-112 75 -112 86 0 10 613 13 1058 6z m4732 -1 l304 -6 -39 -34 c-21 -18 -57
-44 -79 -57 -40 -23 -47 -23 -402 -30 -457 -9 -904 1 -904 21 0 9 16 13 57 13
64 0 62 14 -4 24 -29 4 -43 2 -46 -7 -3 -6 -4 -2 -4 11 1 21 4 22 122 24 l120
2 -105 3 c-116 3 -150 8 -150 23 0 9 76 11 631 18 108 1 332 -1 499 -5z
m-4397 -198 c58 -11 38 -29 -39 -36 l-69 -5 66 -2 c60 -2 67 -4 73 -24 16 -63
56 -58 -491 -58 l-498 0 -50 24 c-54 26 -135 82 -135 94 0 9 1093 16 1143 7z
m4346 -2 l92 -6 -23 -24 c-13 -14 -50 -40 -83 -58 l-60 -33 -360 -3 c-534 -5
-635 -2 -635 16 0 12 14 15 63 17 l62 2 -62 3 c-55 3 -63 7 -63 23 0 18 8 20
63 21 l62 2 -70 12 c-38 6 -63 14 -55 18 8 3 22 8 30 10 23 8 933 8 1039 0z
m-6024 -43 c45 -2 47 -3 20 -10 -16 -4 -52 -8 -80 -9 -79 -2 -33 -18 79 -26
79 -6 102 -11 119 -28 11 -11 46 -34 78 -50 33 -17 59 -33 59 -37 0 -3 -182
-7 -403 -8 l-404 -2 -11 39 c-15 48 -16 128 -2 133 12 4 472 3 545 -2z m7226
-17 c3 -48 -3 -106 -12 -130 l-9 -23 -403 0 c-222 0 -407 3 -410 6 -4 4 15 20
41 37 42 27 55 30 122 29 81 -1 83 3 5 13 -43 6 -47 9 -32 19 9 7 61 16 114
20 54 4 102 11 107 16 7 7 -1 10 -21 10 -16 0 -52 3 -79 8 -50 7 74 13 429 20
l147 3 1 -28z m-5613 -129 l102 -7 0 -38 c0 -33 -3 -39 -22 -40 l-23 -2 23 -4
c12 -2 22 -11 22 -20 0 -14 -32 -15 -292 -11 -269 5 -298 7 -358 27 -70 24
-172 80 -165 92 6 9 582 12 713 3z m3962 -1 c206 -7 205 -6 75 -69 -93 -45
-165 -53 -457 -54 l-238 0 0 40 0 41 34 -7 c19 -3 41 -2 48 3 8 5 -4 10 -36
13 -27 3 -51 10 -53 17 -3 9 23 13 99 16 222 7 352 7 528 0z m-5085 -160 c27
-10 22 -11 -42 -12 -74 -1 -99 -16 -40 -25 185 -27 252 -39 284 -51 36 -13 31
-14 -92 -14 -71 0 -186 4 -255 9 -69 5 -287 14 -485 21 -198 7 -363 15 -366
18 -4 3 -10 21 -14 39 l-7 33 494 -4 c321 -2 503 -7 523 -14z m6705 -13 c0
-42 -23 -50 -142 -50 -57 0 -240 -7 -408 -15 -168 -9 -393 -18 -500 -21 -171
-4 -192 -3 -170 9 27 15 131 34 244 45 41 4 71 12 74 20 3 9 -17 12 -79 12
-45 0 -80 3 -77 6 17 17 148 22 581 23 l477 1 0 -30z m-3512 -110 l562 0 0
-109 0 -108 -37 -5 c-28 -4 -1592 -3 -1787 1 l-28 1 4 106 c3 78 7 107 18 114
9 5 161 8 360 5 190 -2 598 -4 908 -5z m-2466 -232 c70 -19 90 -20 168 -12 50
5 90 8 90 6 0 -2 -15 -16 -32 -33 l-32 -29 -842 0 -842 0 -49 45 -48 44 754 1
c743 0 755 0 833 -22z m5802 -9 c-59 -62 -5 -59 -926 -59 l-844 0 -33 31 c-18
16 -32 32 -30 34 2 2 24 -1 49 -5 72 -14 161 -10 220 10 51 17 106 18 824 19
l770 1 -30 -31z m-5677 -203 c-25 -22 -53 -36 -80 -40 -23 -4 -328 -5 -678 -4
l-637 3 -43 37 -44 38 760 0 760 -1 -38 -33z m5448 14 c-10 -11 -36 -28 -59
-39 -39 -19 -68 -20 -692 -20 l-651 -1 -47 35 c-25 20 -46 38 -46 40 0 3 340
5 757 5 752 0 756 0 738 -20z m-4945 -341 c41 -31 127 -89 191 -131 183 -119
169 -124 -46 -17 -139 68 -257 154 -369 268 -79 79 -80 80 -61 101 18 20 19
20 114 -73 53 -51 130 -118 171 -148z m3270 216 c16 -19 -7 -52 -95 -133 -78
-74 -146 -124 -240 -180 -77 -45 -255 -125 -262 -118 -3 3 54 43 127 91 173
112 268 186 360 277 41 41 80 75 86 76 6 1 17 -5 24 -13z m-3888 -123 c105
-220 327 -479 586 -685 325 -259 739 -442 1170 -519 164 -28 517 -31 680 -5
575 93 1108 371 1476 772 127 138 237 289 296 410 l53 105 68 0 c37 0 70 -4
73 -8 9 -16 -80 -197 -143 -293 -192 -287 -460 -550 -736 -723 -198 -125 -476
-250 -705 -319 -246 -74 -459 -107 -700 -107 -571 0 -1134 201 -1630 579 -104
79 -304 278 -390 386 -130 164 -300 450 -284 477 3 4 38 8 77 7 l72 0 37 -77z
m354 -139 c87 -87 201 -189 251 -228 51 -38 90 -71 88 -73 -11 -11 -231 127
-306 192 -79 68 -182 184 -207 232 -11 20 -7 34 8 34 3 0 78 -71 166 -157z
m3694 143 c0 -21 -82 -128 -148 -194 -88 -88 -248 -196 -352 -238 -42 -17 -49
-23 121 110 63 50 168 145 234 212 116 117 145 139 145 110z m-4360 -22 c0 -3
-16 -26 -36 -50 l-36 -44 -477 0 c-262 0 -480 4 -486 8 -5 4 -28 27 -50 50
l-39 42 562 0 c309 0 562 -3 562 -6z m5917 -41 l-47 -48 -474 -3 -474 -3 -36
44 c-20 24 -36 47 -36 51 0 3 251 6 557 6 l558 0 -48 -47z m-5750 -256 c189
-282 455 -548 738 -736 241 -161 476 -270 777 -361 272 -82 434 -105 743 -105
250 0 326 7 538 51 556 116 1114 431 1475 834 105 117 178 210 271 348 35 50
69 92 77 92 21 0 18 -9 -30 -90 -60 -102 -162 -237 -279 -368 -319 -358 -801
-657 -1289 -798 -636 -184 -1253 -139 -1891 139 -465 202 -866 533 -1150 949
-49 71 -87 140 -87 158 0 32 34 -4 107 -113z m-287 94 c0 -6 -25 -29 -55 -53
l-55 -43 -273 -5 -272 -5 -3 -37 c-2 -21 -6 -38 -10 -38 -10 0 -134 101 -129
106 2 2 30 21 63 43 l59 39 338 1 c204 1 337 -3 337 -8z m5815 -32 c64 -41 65
-42 48 -61 -19 -22 -107 -88 -116 -88 -3 0 -7 17 -9 38 l-3 37 -262 5 -261 5
-48 41 c-26 22 -50 46 -52 52 -3 9 73 12 317 12 l320 0 66 -41z m-4260 -149
c27 -10 55 -62 55 -103 0 -39 -59 -144 -98 -177 -60 -49 -135 -35 -162 30 -29
70 42 209 125 246 37 16 47 17 80 4z m1985 -145 l70 -145 64 35 64 36 5 -28
c7 -34 9 -31 -84 -86 l-75 -45 -83 175 c-45 96 -81 176 -79 178 5 3 43 24 45
25 2 0 34 -65 73 -145z m1757 46 c-12 -21 -33 -43 -49 -49 -15 -5 -33 -22 -40
-36 -10 -23 -9 -30 10 -48 l22 -22 27 22 c52 42 132 75 169 69 95 -16 149
-118 110 -210 -18 -44 -78 -95 -121 -103 -48 -9 -110 3 -97 19 5 7 13 27 17
45 5 25 12 32 30 32 34 0 78 55 65 81 -15 27 -43 24 -94 -12 -61 -43 -130 -50
-181 -19 -115 71 -96 229 34 283 30 13 40 13 77 0 l42 -14 -21 -38z m-5342
-14 c33 -33 45 -53 50 -88 13 -89 -31 -149 -183 -247 -105 -68 -179 -66 -246
8 -59 66 -61 153 -3 210 38 38 175 136 208 149 13 5 48 10 78 10 50 1 56 -2
96 -42z m1877 -17 c55 -28 81 -71 72 -119 -6 -30 -54 -81 -76 -81 -7 0 -9 -29
-4 -90 l7 -89 -29 10 c-28 10 -29 13 -35 91 -7 107 -19 117 -52 45 -15 -31
-30 -57 -35 -57 -18 0 -40 13 -40 23 0 16 134 298 140 294 3 -1 26 -13 52 -27z
m1473 -135 c53 -71 106 -140 117 -152 l20 -21 -32 -17 c-17 -9 -33 -15 -34
-13 -1 2 -13 19 -26 38 -48 72 -58 80 -88 64 -15 -8 -33 -14 -39 -14 -16 0
-16 -24 -1 -90 11 -48 10 -54 -7 -66 -10 -8 -20 -12 -22 -10 -9 9 -42 210 -48
291 l-7 90 29 17 c15 9 31 15 35 15 4 -1 50 -60 103 -132z m-302 -14 c9 -32
26 -103 37 -157 11 -55 23 -109 25 -121 8 -34 -32 -42 -59 -12 -32 36 -177
163 -210 184 l-28 19 5 -30 c8 -36 25 -168 29 -213 2 -27 -1 -35 -19 -42 -13
-5 -23 -7 -24 -6 -6 17 -45 324 -42 329 2 4 22 13 44 19 l40 12 72 -69 c40
-38 83 -79 96 -89 l23 -20 -6 35 c-4 19 -16 70 -27 112 -25 102 -26 97 22 107
3 0 13 -25 22 -58z m2041 12 c20 -18 36 -36 36 -40 0 -4 -14 -21 -31 -39 l-30
-31 98 -85 c54 -46 126 -104 161 -128 34 -24 62 -47 62 -50 0 -3 -20 -25 -44
-49 l-45 -44 -145 123 c-81 67 -149 126 -152 131 -10 17 -29 8 -54 -26 -14
-19 -29 -35 -35 -35 -5 0 -28 19 -52 42 l-42 41 85 90 c47 49 94 102 106 118
23 31 27 30 82 -18z m-2945 13 c10 -11 3 -46 -30 -163 -23 -81 -43 -149 -44
-151 -1 -2 -15 0 -30 4 -24 6 -26 10 -21 38 15 72 90 286 101 286 7 0 18 -6
24 -14z m-1914 -109 c68 -83 84 -114 85 -167 1 -104 -79 -186 -171 -176 l-47
5 -15 -42 c-8 -23 -23 -67 -32 -97 -10 -30 -19 -58 -21 -62 -3 -3 -27 18 -56
48 l-51 54 30 57 c36 69 47 109 32 118 -5 4 -40 -16 -77 -45 l-67 -51 -42 47
c-24 27 -39 51 -35 54 4 4 57 44 117 90 61 46 150 117 198 157 49 40 92 73 95
72 4 0 30 -28 57 -62z m2167 32 c22 -12 52 -74 43 -89 -12 -20 -45 -10 -51 14
-7 28 -31 41 -49 26 -25 -20 -36 -67 -33 -136 3 -63 5 -69 26 -72 13 -2 30 2
38 8 21 18 18 57 -5 65 -23 7 -35 32 -20 41 6 3 31 3 56 -1 l46 -7 -7 -56 c-7
-63 -25 -87 -73 -101 -39 -11 -92 12 -110 49 -7 14 -13 52 -13 86 0 123 78
213 152 173z m231 -116 c4 -54 7 -126 7 -160 l0 -63 -30 0 -30 0 0 160 0 160
23 0 c23 0 24 -4 30 -97z m2250 -117 c60 -24 117 -111 117 -177 0 -10 24 -23
72 -38 39 -13 89 -31 110 -40 l39 -16 -50 -49 -49 -48 -67 37 -66 38 -34 -33
-34 -33 46 -54 46 -54 -39 -40 c-21 -21 -43 -39 -50 -39 -6 0 -24 17 -40 37
-41 54 -256 303 -286 333 l-26 24 65 61 c114 104 167 124 246 91z m-4382 -57
c21 -17 39 -34 39 -37 0 -4 -25 -34 -56 -67 -111 -120 -230 -251 -266 -294
l-37 -44 -48 46 -48 46 45 48 c84 89 324 333 328 333 2 0 22 -14 43 -31z m212
-164 c20 -8 68 -42 107 -74 39 -33 76 -61 83 -64 7 -2 -1 -19 -23 -43 -20 -21
-43 -50 -52 -63 l-17 -25 -33 36 c-18 20 -44 51 -57 68 -13 17 -34 38 -47 47
-37 24 -73 3 -159 -94 -71 -80 -75 -86 -62 -106 24 -37 61 -53 91 -39 31 14
34 42 6 49 -28 7 -25 18 14 60 l33 37 97 -78 c53 -42 96 -79 96 -82 0 -3 -129
-201 -145 -222 -1 -1 -27 14 -57 34 l-56 37 34 44 c19 25 34 49 34 53 0 5 -21
-2 -46 -15 -26 -14 -60 -25 -76 -25 -41 0 -102 34 -130 72 -33 48 -32 131 3
184 42 62 172 192 210 208 44 20 107 20 152 1z m3892 -46 c40 -35 81 -100 96
-151 13 -46 -5 -108 -48 -158 l-34 -40 37 -46 38 -46 -44 -39 c-25 -21 -48
-39 -52 -39 -4 0 -56 64 -115 143 -60 78 -130 170 -157 204 -26 34 -45 66 -42
72 12 19 124 101 158 116 18 8 54 14 80 15 39 0 54 -5 83 -31z m-3428 -330 c7
-63 13 -125 15 -139 2 -19 15 0 55 83 29 59 54 107 56 107 2 0 22 -9 45 -20
22 -11 45 -20 51 -20 25 0 17 -28 -42 -157 -35 -76 -83 -184 -108 -241 -32
-74 -48 -101 -59 -98 -42 12 -122 44 -130 52 -10 10 -40 187 -40 234 0 16 -3
30 -8 30 -4 0 -30 -40 -57 -90 -28 -49 -53 -90 -56 -90 -11 0 -139 61 -139 67
0 2 13 23 29 46 15 23 79 126 140 229 l112 188 62 -34 62 -33 12 -114z m2817
27 c45 -19 75 -61 138 -191 44 -92 53 -119 53 -165 0 -71 -29 -113 -99 -146
-96 -45 -186 -26 -229 48 -55 94 -117 248 -117 289 0 75 48 136 128 165 48 17
85 17 126 0z m-346 -139 c12 -28 22 -57 22 -64 0 -6 -20 -15 -45 -19 -29 -4
-45 -11 -45 -20 0 -8 16 -80 36 -160 33 -132 36 -149 24 -187 -17 -57 -65
-102 -130 -121 -72 -22 -108 -20 -160 7 -64 32 -84 76 -131 289 -22 100 -42
185 -45 189 -4 7 82 29 109 29 7 0 29 -70 55 -173 47 -184 57 -214 84 -231 27
-16 88 17 88 48 0 13 -23 97 -51 187 -28 90 -52 173 -52 183 -2 16 16 26 103
56 58 21 107 38 110 38 3 1 15 -22 28 -51z m-1942 12 c38 -11 73 -24 77 -28 7
-7 28 -551 21 -560 -2 -2 -35 4 -74 14 l-70 17 0 57 0 57 -67 21 c-76 23 -77
23 -115 -46 l-17 -31 -53 21 c-29 12 -63 24 -75 27 -13 2 -23 6 -23 8 0 2 22
34 48 71 48 69 173 258 227 345 17 27 35 48 41 48 7 0 43 -9 80 -21z m392
-106 c29 -5 32 -9 28 -32 -15 -70 -56 -364 -52 -369 9 -8 89 -21 135 -22 l44
0 -6 -66 c-2 -36 -7 -68 -11 -71 -6 -6 -101 7 -247 34 -86 16 -87 17 -78 42 4
14 22 105 38 201 17 96 36 204 43 238 l12 64 30 -7 c17 -3 46 -9 64 -12z m912
-53 c22 -58 150 -371 175 -427 l23 -52 -26 -5 c-15 -3 -50 -8 -78 -11 l-52 -7
-17 51 c-18 56 -18 56 -111 45 l-52 -7 -4 -48 c-3 -27 -7 -51 -9 -54 -3 -2
-40 -7 -83 -11 -74 -7 -78 -6 -72 12 6 22 73 368 88 464 6 36 12 67 14 68 5 7
179 28 185 23 3 -3 12 -22 19 -41z"/>
<path d="M3752 8518 c-60 -23 -60 -24 -22 -112 24 -52 27 -52 103 -15 27 14
37 26 37 43 0 37 -20 86 -40 96 -22 12 -14 13 -78 -12z"/>
<path d="M6488 8463 c-34 -39 -148 -291 -148 -328 0 -42 72 -73 98 -42 22 26
134 284 139 318 4 30 1 39 -18 53 -30 21 -52 20 -71 -1z"/>
<path d="M7417 7682 c-64 -66 -117 -124 -117 -130 0 -16 50 -72 64 -72 18 0
229 215 240 244 7 18 5 31 -8 50 -30 47 -53 35 -179 -92z"/>
<path d="M6897 6089 c-154 -30 -302 -149 -361 -292 -21 -51 -21 -64 -26 -792
l-5 -740 -23 -65 c-30 -81 -61 -135 -111 -189 -34 -37 -42 -41 -60 -32 -28 16
-39 13 -17 -4 11 -8 17 -18 13 -21 -11 -11 -37 17 -37 39 0 11 3 18 6 15 7 -8
74 65 74 81 0 6 4 11 8 11 5 0 14 11 20 24 8 17 -4 10 -38 -24 -27 -27 -61
-57 -75 -66 -13 -9 -22 -20 -19 -25 3 -5 2 -9 -3 -8 -17 3 -32 -1 -45 -14 -7
-7 -26 -18 -41 -25 -16 -7 -25 -17 -22 -23 4 -6 1 -9 -6 -8 -15 2 -44 -8 -134
-50 -121 -57 -171 -79 -193 -86 -12 -3 -20 -11 -16 -16 3 -6 0 -9 -7 -8 -8 1
-38 -9 -67 -22 -47 -22 -52 -27 -38 -38 9 -8 16 -9 16 -3 0 12 80 55 88 48 3
-3 11 -1 19 5 7 6 13 9 13 5 0 -4 13 0 30 9 16 8 37 15 47 14 14 0 12 -3 -6
-10 -19 -7 -22 -12 -13 -21 9 -9 7 -15 -10 -26 -18 -11 -19 -12 -3 -6 11 3 30
9 43 11 12 3 22 13 22 22 0 12 -2 13 -8 3 -5 -7 -16 -10 -26 -6 -16 6 -14 9
10 19 16 7 36 9 44 5 8 -4 22 -5 30 -2 13 5 13 3 1 -12 -8 -9 -20 -15 -28 -12
-7 3 -13 1 -13 -5 0 -5 -12 -14 -26 -20 -15 -5 -25 -12 -22 -14 7 -7 62 17
233 102 155 77 180 92 149 90 -11 -1 -22 -6 -26 -11 -3 -5 -5 3 -5 18 2 21 4
23 13 12 14 -20 56 -14 91 13 98 77 152 147 191 248 l27 68 5 740 5 740 24 55
c73 165 200 258 412 299 l44 9 -50 0 c-27 0 -72 -4 -98 -9z"/>
<path d="M5275 3545 c-27 -13 -80 -38 -117 -55 -70 -32 -87 -54 -43 -56 14 -1
25 2 25 7 0 4 7 6 17 2 14 -5 13 -8 -6 -15 -13 -4 -27 -6 -32 -2 -5 3 -9 0 -9
-6 0 -8 11 -9 33 -5 25 5 28 4 15 -5 -9 -6 -15 -17 -12 -24 4 -11 19 -7 67 17
l63 31 -24 25 c-25 27 -13 43 14 17 20 -20 25 -20 17 1 -5 13 -2 15 11 10 10
-4 25 -7 34 -7 11 -1 7 -6 -11 -16 -16 -9 -26 -18 -23 -21 3 -3 20 4 38 15
l33 21 -33 7 c-24 5 -30 9 -20 15 8 6 0 7 -19 3 -29 -6 -31 -4 -26 15 3 11 9
21 14 21 5 0 6 -8 3 -17 -5 -14 -4 -15 4 -4 7 10 14 10 30 2 11 -6 24 -11 29
-11 4 1 -5 8 -20 16 -35 19 -30 28 7 15 19 -8 25 -7 23 2 -2 12 -17 27 -27 26
-3 0 -27 -11 -55 -24z"/>
<path d="M4021 3183 c-60 -73 -77 -143 -40 -166 24 -15 63 13 100 71 64 101
13 183 -60 95z"/>
<path d="M2333 3044 c-79 -54 -123 -93 -123 -109 0 -7 9 -20 20 -30 17 -15 24
-16 45 -7 49 22 175 125 175 142 0 16 -29 50 -43 50 -3 0 -36 -21 -74 -46z"/>
<path d="M6397 2002 c-24 -26 -22 -42 15 -124 45 -102 61 -129 84 -145 18 -12
24 -11 47 8 15 11 27 28 27 38 0 10 -25 68 -55 130 -46 95 -58 111 -78 111
-13 0 -31 -8 -40 -18z"/>
</g>
</svg>
